<?xml version="1.0" encoding="UTF-8" standalone="no"?>
<!-- Created with Inkscape (http://www.inkscape.org/) -->

<svg
   width="1935.1182"
   height="1935.1182"
   viewBox="0 0 512.00001 512.00001"
   version="1.1"
   id="svg5"
   inkscape:version="1.2.2 (732a01da63, 2022-12-09)"
   sodipodi:docname="contract.svg"
   xml:space="preserve"
   xmlns:inkscape="http://www.inkscape.org/namespaces/inkscape"
   xmlns:sodipodi="http://sodipodi.sourceforge.net/DTD/sodipodi-0.dtd"
   xmlns="http://www.w3.org/2000/svg"
   xmlns:svg="http://www.w3.org/2000/svg"><sodipodi:namedview
     id="namedview7"
     pagecolor="#e76d6d"
     bordercolor="#000000"
     borderopacity="0.25"
     inkscape:showpageshadow="2"
     inkscape:pageopacity="0"
     inkscape:pagecheckerboard="0"
     inkscape:deskcolor="#d1d1d1"
     inkscape:document-units="mm"
     showgrid="false"
     inkscape:lockguides="false"
     inkscape:zoom="0.3581229"
     inkscape:cx="815.36255"
     inkscape:cy="945.20624"
     inkscape:window-width="2400"
     inkscape:window-height="1261"
     inkscape:window-x="2391"
     inkscape:window-y="-9"
     inkscape:window-maximized="1"
     inkscape:current-layer="layer1" /><defs
     id="defs2"><filter
       style="color-interpolation-filters:sRGB"
       inkscape:label="Drop Shadow"
       id="filter2717"
       x="-0.008132982"
       y="-0.0061616309"
       width="1.0277887"
       height="1.021053"><feFlood
         flood-opacity="0.101961"
         flood-color="rgb(0,0,0)"
         result="flood"
         id="feFlood2707" /><feComposite
         in="flood"
         in2="SourceGraphic"
         operator="in"
         result="composite1"
         id="feComposite2709" /><feGaussianBlur
         in="composite1"
         stdDeviation="0"
         result="blur"
         id="feGaussianBlur2711" /><feOffset
         dx="2"
         dy="2"
         result="offset"
         id="feOffset2713" /><feComposite
         in="SourceGraphic"
         in2="offset"
         operator="over"
         result="composite2"
         id="feComposite2715" /></filter><filter
       style="color-interpolation-filters:sRGB;"
       inkscape:label="Drop Shadow"
       id="filter2753"
       x="-0.13289136"
       y="-0.10289467"
       width="1.3205301"
       height="1.248179"><feFlood
         flood-opacity="0.101961"
         flood-color="rgb(0,0,0)"
         result="flood"
         id="feFlood2743" /><feComposite
         in="flood"
         in2="SourceGraphic"
         operator="in"
         result="composite1"
         id="feComposite2745" /><feGaussianBlur
         in="composite1"
         stdDeviation="4"
         result="blur"
         id="feGaussianBlur2747" /><feOffset
         dx="10"
         dy="10"
         result="offset"
         id="feOffset2749" /><feComposite
         in="SourceGraphic"
         in2="offset"
         operator="over"
         result="composite2"
         id="feComposite2751" /></filter></defs><g
     inkscape:label="paper"
     inkscape:groupmode="layer"
     id="layer1"><g
       id="g5798"
       inkscape:label="contracts"
       transform="matrix(1.770995,0,0,1.770995,203.03747,-152.23063)"
       style="stroke-width:1.00000282;stroke-dasharray:none;filter:url(#filter2753)"><rect
         style="display:inline;fill:#ffffff;stroke:#ffffff;stroke-width:28.2327;stroke-dasharray:none;stroke-opacity:0.995951"
         id="rect372"
         width="173.56918"
         height="229.10088"
         x="-45.344498"
         y="94.106323"
         transform="rotate(-2.3086372,544.73028,614.67274)"
         inkscape:label="sticker"
         ry="0.73283505" /><rect
         style="display:inline;fill:#ffffff;stroke:#40396e;stroke-width:2.82327;stroke-dasharray:none;stroke-opacity:1;filter:url(#filter2717)"
         id="rect358"
         width="173.56918"
         height="229.10088"
         x="-45.344498"
         y="94.106323"
         transform="rotate(-2.3086372,544.73028,614.67274)"
         inkscape:label="1"
         sodipodi:insensitive="true"
         ry="7.5365744" /><g
         id="g4299"
         transform="rotate(-0.55851421,24.129436,199.01964)"
         inkscape:label="text"
         style="display:inline;stroke-width:1;stroke-dasharray:none"
         sodipodi:insensitive="true"><rect
           style="opacity:1;fill:#dadada;fill-opacity:1;stroke:none;stroke-width:1;stroke-dasharray:none"
           id="rect3365"
           width="151.46367"
           height="4.172123"
           x="-57.377735"
           y="148.61526"
           rx="2.0390663"
           ry="2.0390663"
           transform="rotate(-1.5309604)" /><rect
           style="opacity:1;fill:#dadada;fill-opacity:1;stroke:none;stroke-width:1;stroke-dasharray:none"
           id="rect4247"
           width="96.70298"
           height="4.1721191"
           x="-57.265068"
           y="158.22618"
           rx="1.818904"
           ry="1.818904"
           transform="rotate(-1.5309604)"
           inkscape:label="text" /><rect
           style="opacity:1;fill:#dadada;fill-opacity:1;stroke:none;stroke-width:1;stroke-dasharray:none"
           id="rect4270"
           width="131.15422"
           height="3.6126883"
           x="-57.381863"
           y="168.5752"
           rx="1.7253996"
           ry="1.7253996"
           transform="rotate(-1.5309604)"
           inkscape:label="text" /><rect
           style="opacity:1;fill:#dadada;fill-opacity:1;stroke:none;stroke-width:1;stroke-dasharray:none"
           id="rect4272"
           width="151.46367"
           height="4.172123"
           x="-57.618729"
           y="177.4377"
           rx="1.894264"
           ry="1.894264"
           transform="rotate(-1.5309604)"
           inkscape:label="text" /><rect
           style="opacity:1;fill:#dadada;fill-opacity:1;stroke:none;stroke-width:1;stroke-dasharray:none"
           id="rect4274"
           width="151.46367"
           height="4.172123"
           x="-57.875336"
           y="187.03874"
           rx="1.9499987"
           ry="1.9499987"
           transform="rotate(-1.5309604)"
           inkscape:label="text" /><rect
           style="opacity:1;fill:#dadada;fill-opacity:1;stroke:none;stroke-width:1;stroke-dasharray:none"
           id="rect4276"
           width="151.46367"
           height="4.172123"
           x="-57.624035"
           y="197.44234"
           rx="2.0860615"
           ry="2.0860615"
           transform="rotate(-1.5309604)"
           inkscape:label="text" /><rect
           style="opacity:1;fill:#dadada;fill-opacity:1;stroke:none;stroke-width:1;stroke-dasharray:none"
           id="rect4278"
           width="113.41476"
           height="4.2627869"
           x="-57.526592"
           y="207.21277"
           rx="1.7918733"
           ry="1.7918733"
           transform="rotate(-1.5309604)"
           inkscape:label="text" /><rect
           style="opacity:1;fill:#dadada;fill-opacity:1;stroke:none;stroke-width:1;stroke-dasharray:none"
           id="rect4280"
           width="151.46367"
           height="4.172123"
           x="-57.597382"
           y="216.24974"
           rx="2.0860615"
           ry="2.0860615"
           transform="rotate(-1.5309604)"
           inkscape:label="text" /><rect
           style="opacity:1;fill:#dadada;fill-opacity:1;stroke:none;stroke-width:1;stroke-dasharray:none"
           id="rect4282"
           width="151.46367"
           height="4.172123"
           x="-57.853989"
           y="225.85078"
           rx="1.8872281"
           ry="1.8872281"
           transform="rotate(-1.5309604)"
           inkscape:label="text" /><rect
           style="opacity:1;fill:#dadada;fill-opacity:1;stroke:none;stroke-width:1;stroke-dasharray:none"
           id="rect4284"
           width="151.46367"
           height="4.172123"
           x="-57.602688"
           y="236.25438"
           rx="2.0860615"
           ry="2.0860615"
           transform="rotate(-1.5309604)"
           inkscape:label="text" /><rect
           style="opacity:1;fill:#dadada;fill-opacity:1;stroke:none;stroke-width:1;stroke-dasharray:none"
           id="rect4286"
           width="113.41476"
           height="4.2627869"
           x="-57.254261"
           y="246.159"
           rx="0.90160841"
           ry="0.90160841"
           transform="rotate(-1.5309604)"
           inkscape:label="text" /><rect
           style="fill:#dadada;fill-opacity:1;stroke:none;stroke-width:1;stroke-dasharray:none"
           id="rect4247-9"
           width="59.172897"
           height="4.4662766"
           x="-54.880112"
           y="282.06049"
           rx="1.7569647"
           ry="1.1148831"
           transform="rotate(-1.5309604)"
           inkscape:label="text" /><rect
           style="fill:#dadada;fill-opacity:1;stroke:none;stroke-width:1;stroke-dasharray:none"
           id="rect4350"
           width="67.936569"
           height="4.2632532"
           x="-55.376484"
           y="291.2836"
           rx="1.7569647"
           ry="1.1148831"
           transform="rotate(-1.5309604)"
           inkscape:label="text" /></g><path
         style="opacity:1;fill:#598cc7;fill-opacity:1;stroke:none;stroke-width:1.00000282;stroke-dasharray:none"
         id="path4401"
         d="m 63.986271,315.3344 c -1.253422,0.51423 -2.445027,1.14823 -3.605567,1.84545 -1.105239,0.6625 -1.924666,1.63511 -2.652807,2.67747 -0.448457,0.61305 -0.614083,1.30088 -0.68295,2.04119 -0.09163,0.63951 0.121034,1.20307 0.409918,1.75993 0.827594,1.17156 2.271714,1.85036 3.654232,2.18902 0.504703,0.057 0.987005,0.15926 1.4757,0.29598 0.479027,0.14252 0.97352,0.18905 1.470052,0.21193 0.697014,0.0548 1.374261,-0.031 2.056935,-0.15994 0.74753,-0.17363 1.450871,-0.46255 2.127513,-0.81888 1.232105,-0.61013 2.321865,-1.43672 3.389576,-2.29399 1.010912,-0.71542 1.811847,-1.64214 2.57557,-2.60433 0.584745,-0.82897 1.243561,-1.60259 1.842644,-2.42006 0.696906,-0.91289 1.277242,-1.90681 1.836364,-2.90778 0.641963,-1.14696 1.230507,-2.32299 1.873698,-3.46915 0.338217,-0.59441 0.705337,-1.17073 1.044217,-1.76506 0.329155,-0.52724 0.608725,-1.08199 0.894532,-1.63309 0.148003,-0.24155 0.457846,-1.05595 0.686241,-1.17277 -0.269211,1.11692 0.04022,0.0871 -2.515232,-1.26211 -0.04897,-0.0259 0.03252,0.10618 0.04219,0.16071 0.04747,0.26763 0.04393,0.54673 0.05211,0.8172 0.0425,0.79859 -0.03852,1.59181 -0.153809,2.38067 -0.152329,0.84238 -0.363107,1.67351 -0.561086,2.50622 -0.216977,0.65532 -0.320408,1.33476 -0.427613,2.01367 -0.124232,0.76808 -0.238766,1.53762 -0.363571,2.30566 -0.14359,0.76691 -0.208844,1.54265 -0.239105,2.32117 -0.01653,0.80901 -0.04622,1.61831 0.05485,2.42249 0.08565,0.75524 0.249352,1.25191 0.771446,1.80483 1.101372,0.98565 2.334401,1.91731 3.772613,2.3432 0.39034,0.0869 0.792432,0.0815 1.190026,0.0813 0.510471,0.0211 0.79116,-0.0442 1.217318,-0.32823 0.600948,-0.3909 1.088213,-0.92199 1.647718,-1.36498 0.58004,-0.52007 1.259652,-0.86914 1.9453,-1.22249 0.424476,-0.18291 0.911484,-0.47665 1.378349,-0.30024 -5.560177,-2.66015 -2.755688,-1.77641 -2.148729,-1.11918 0.117871,0.12764 0.199428,0.29134 0.295149,0.43519 0.335307,0.48123 0.735137,0.90457 1.15219,1.31457 1.265581,1.12316 2.799992,1.94111 4.330097,2.64371 0.7434,0.349 1.527802,0.53347 2.337119,0.63798 0.754162,0.0764 1.513147,0.075 2.27028,0.0751 0.788257,-0.0123 1.342676,-0.20617 1.973881,-0.66889 0.22958,-0.14009 0.3994,-0.33986 0.56762,-0.54448 0,0 -2.535764,-1.52259 -2.535764,-1.52259 v 0 c -0.155158,0.18299 -0.318012,0.35233 -0.52225,0.48289 -0.561609,0.38464 -1.172343,0.55342 -1.856239,0.52781 -0.749257,-0.005 -1.50126,-0.009 -2.245365,-0.10735 -0.792194,-0.12549 -1.556354,-0.3518 -2.27916,-0.7055 -1.06333,-0.52815 -0.861827,-0.43882 1.792775,1.08414 0.100409,0.0576 -0.190483,-0.13178 -0.288995,-0.19256 -0.290622,-0.17936 -0.592276,-0.3387 -0.832019,-0.59043 -0.407028,-0.39618 -0.814327,-0.78612 -1.140011,-1.25383 -0.117779,-0.15155 -0.192171,-0.29226 -0.285737,-0.45772 -0.575876,-1.01825 -2.71925,-0.90882 -2.958414,-1.82205 -0.524245,0.005 -1.003177,0.23681 -1.462601,0.47152 -0.697181,0.36427 -1.372142,0.75542 -1.966732,1.27778 -0.545946,0.44468 -1.046063,0.95162 -1.654653,1.31416 -0.356017,0.19052 -0.7298,0.21179 -1.12916,0.18939 -0.380331,-0.009 -0.767316,-0.0194 -1.125111,-0.1641 -0.990281,-0.47625 -0.281433,-0.14129 2.158423,1.27963 0.0687,0.04 -0.138795,-0.0781 -0.204188,-0.12327 -0.238764,-0.16512 -0.427292,-0.38679 -0.66716,-0.5506 -0.575683,-0.47916 -0.77453,-0.87692 -0.869376,-1.63082 -0.120678,-0.78771 -0.09462,-1.5789 -0.07182,-2.37381 0.02554,-0.7688 0.07737,-1.5367 0.206948,-2.29602 0.127364,-0.76524 0.270069,-1.52773 0.383387,-2.2952 0.114664,-0.67178 0.190643,-1.35117 0.410506,-2.00095 0.191758,-0.84321 0.395591,-1.68404 0.565721,-2.53172 0.115524,-0.79998 0.227678,-1.60246 0.193808,-2.41337 -3.97e-4,-0.0811 -0.01175,-1.03263 -0.02687,-1.04379 -2.477682,-1.82973 -1.745141,-2.3001 -2.714496,-1.57332 -0.311745,0.37279 -0.480312,0.85699 -0.707768,1.28138 -0.281245,0.54963 -0.567439,1.09555 -0.89626,1.61894 -0.334483,0.59727 -0.685294,1.18525 -1.005313,1.79063 -0.628085,1.1532 -1.19321,2.34018 -1.840503,3.48329 -0.574752,0.97984 -1.175488,1.94798 -1.864808,2.85235 -0.601422,0.80989 -1.223946,1.60432 -1.810252,2.42584 -0.757333,0.9365 -1.556077,1.83324 -2.520597,2.56523 -1.054963,0.85883 -2.171411,1.62596 -3.403556,2.21145 -0.669107,0.32071 -1.362875,0.59257 -2.092524,0.74127 -0.674207,0.11746 -1.349521,0.15224 -2.032728,0.0896 -0.484344,-0.0382 -0.962698,-0.11678 -1.429147,-0.25628 -0.489483,-0.12914 -0.989427,-0.17992 -1.479744,-0.30288 -1.050674,-0.33839 -1.885076,-1.04258 1.9297,1.22308 0.06023,0.0358 -0.130429,-0.0527 -0.190686,-0.0884 -0.182496,-0.10824 -0.207614,-0.16032 -0.352863,-0.31886 -0.313079,-0.48817 -0.553988,-1.00727 -0.491053,-1.60172 0.04594,-0.69226 0.17858,-1.33982 0.579685,-1.9247 0.682359,-1.02556 1.487594,-1.94692 2.553078,-2.59254 1.161996,-0.69822 2.359233,-1.33304 3.655019,-1.74907 0,0 -2.460118,-1.65591 -2.460118,-1.65591 z" /></g></g></svg>
