<?xml version="1.0" encoding="UTF-8" standalone="no"?>
<svg
   viewBox="0 0 512 512"
   version="1.1"
   id="svg4"
   sodipodi:docname="home.svg"
   inkscape:version="1.2.2 (732a01da63, 2022-12-09)"
   width="512"
   height="512"
   xmlns:inkscape="http://www.inkscape.org/namespaces/inkscape"
   xmlns:sodipodi="http://sodipodi.sourceforge.net/DTD/sodipodi-0.dtd"
   xmlns="http://www.w3.org/2000/svg"
   xmlns:svg="http://www.w3.org/2000/svg">
  <defs
     id="defs8">
    <inkscape:path-effect
       effect="bspline"
       id="path-effect4756"
       is_visible="true"
       lpeversion="1"
       weight="33.333333"
       steps="2"
       helper_size="0"
       apply_no_weight="true"
       apply_with_weight="true"
       only_selected="false" />
    <filter
       style="color-interpolation-filters:sRGB"
       inkscape:label="Drop Shadow"
       id="filter4796"
       x="-0.080769584"
       y="-0.090633997"
       width="1.1813744"
       height="1.2036064">
      <feFlood
         flood-opacity="0.498039"
         flood-color="rgb(0,0,0)"
         result="flood"
         id="feFlood4786" />
      <feComposite
         in="flood"
         in2="SourceGraphic"
         operator="in"
         result="composite1"
         id="feComposite4788" />
      <feGaussianBlur
         in="composite1"
         stdDeviation="5"
         result="blur"
         id="feGaussianBlur4790" />
      <feOffset
         dx="10"
         dy="10"
         result="offset"
         id="feOffset4792" />
      <feComposite
         in="SourceGraphic"
         in2="offset"
         operator="over"
         result="composite2"
         id="feComposite4794" />
    </filter>
  </defs>
  <sodipodi:namedview
     id="namedview6"
     pagecolor="#bcb0eb"
     bordercolor="#000000"
     borderopacity="0.25"
     inkscape:showpageshadow="2"
     inkscape:pageopacity="0"
     inkscape:pagecheckerboard="0"
     inkscape:deskcolor="#d1d1d1"
     showgrid="false"
     inkscape:zoom="0.78515625"
     inkscape:cx="407.56219"
     inkscape:cy="389.09453"
     inkscape:window-width="2400"
     inkscape:window-height="1261"
     inkscape:window-x="2391"
     inkscape:window-y="-9"
     inkscape:window-maximized="1"
     inkscape:current-layer="svg4" />
  <!--! Font Awesome Pro 6.3.0 by @fontawesome - https://fontawesome.com License - https://fontawesome.com/license (Commercial License) Copyright 2023 Fonticons, Inc. -->
  <path
     id="path295"
     style="display:inline;fill:none;fill-opacity:1;stroke:#ffffff;stroke-width:57.33143629;stroke-dasharray:none;stroke-opacity:1;filter:url(#filter4796)"
     inkscape:label="bg"
     d="m 287.16992,31.671875 c -6.23561,0.04838 -12.64907,1.615761 -17.64534,5.487198 -2.30549,1.803598 -4.36856,3.892442 -6.62717,5.753588 C 190.55074,105.97919 118.19463,169.03607 45.861328,232.11719 c -5.138826,5.05966 -8.659301,11.81674 -9.478516,19.01172 -1.068303,8.27407 0.968414,17.0086 6.048758,23.68511 5.513275,7.38803 14.472073,12.02637 23.679023,12.33345 3.714115,0.1287 7.432158,-10e-4 11.148001,0.0498 4.676172,0 9.352344,0 14.028515,0 -0.0068,18.76462 0.02151,37.53012 -0.02393,56.2942 -0.14223,4.77117 -0.02053,9.54654 -0.06221,14.31947 0.0033,28.47799 -0.01464,56.95659 0.02389,85.43421 0.307339,10.88226 5.563298,21.49135 14.004281,28.36052 7.07695,5.85281 16.30795,9.00401 25.48648,8.72965 4.88312,-0.0315 9.77219,0.0922 14.65127,-0.0867 1.74166,-0.14768 3.31844,0.12252 5.07881,0.0893 16.52494,-0.0125 33.05075,0.035 49.57512,-0.0342 10.90031,-0.3559 21.49326,-5.69674 28.323,-14.19001 5.77591,-7.08183 8.85182,-16.27437 8.56824,-25.40426 0.008,-25.2074 -0.0258,-50.41543 0.0256,-75.62243 0.28221,-8.00398 5.02859,-15.65444 12.05013,-19.49904 3.96856,-2.21846 8.56877,-3.16747 13.09468,-2.961 18.23519,0.0124 36.47131,-0.0348 54.70591,0.0342 7.97645,0.33997 15.57743,5.10801 19.37681,12.12706 2.20959,3.97591 3.12368,8.58379 2.91686,13.10868 0.006,25.14737 -0.02,50.29547 0.0269,75.44236 0.334,10.9558 5.6909,21.61956 14.24458,28.46591 7.04651,5.7327 16.17902,8.7979 25.25585,8.53283 16.75306,-0.0134 33.50702,0.0368 50.25949,-0.0363 3.17363,0.023 6.34744,0.0572 9.52176,0.032 4.00173,-0.0337 8.01614,0.14085 12.00782,-0.2009 10.33972,-1.04212 20.12343,-6.52949 26.43074,-14.78463 5.39642,-6.97117 8.23201,-15.84155 7.9646,-24.64779 0.0357,-4.37379 -0.0822,-8.75373 0.0715,-13.12346 0.62545,-5.98394 0.23855,-12.0085 0.30672,-18.01128 -0.17844,-40.78946 -0.35687,-81.57892 -0.5353,-122.36838 8.43247,-0.0178 16.86697,0.0552 25.29812,-0.054 10.89938,-0.57351 21.15705,-7.33397 26.17218,-16.99848 2.42006,-4.55787 3.60301,-9.71974 3.63865,-14.8676 0.59879,-6.40955 -1.67891,-12.87102 -5.6369,-17.87826 -3.32265,-4.28329 -7.71148,-7.53924 -11.68924,-11.16935 C 451.20251,163.63387 379.99481,101.02684 308.76564,38.445378 302.75481,33.549432 294.82738,31.486559 287.16992,31.671875 Z"
     transform="matrix(0.87212188,0,0,0.87212188,2.703335,31.575246)" />
  <path
     id="path2"
     style="display:inline;fill:#dbeeff;fill-opacity:1;stroke:#40396f;stroke-width:17.1994;stroke-dasharray:none;stroke-opacity:1"
     inkscape:label="home"
     d="m 287.16992,31.671875 c -6.23561,0.04838 -12.64907,1.615761 -17.64534,5.487198 -2.30549,1.803598 -4.36856,3.892442 -6.62717,5.753588 C 190.55074,105.97919 118.19463,169.03607 45.861328,232.11719 c -5.138826,5.05966 -8.659301,11.81674 -9.478516,19.01172 -1.068303,8.27407 0.968414,17.0086 6.048758,23.68511 5.513275,7.38803 14.472073,12.02637 23.679023,12.33345 3.714115,0.1287 7.432158,-10e-4 11.148001,0.0498 4.676172,0 9.352344,0 14.028515,0 -0.0068,18.76462 0.02151,37.53012 -0.02393,56.2942 -0.14223,4.77117 -0.02053,9.54654 -0.06221,14.31947 0.0033,28.47799 -0.01464,56.95659 0.02389,85.43421 0.307339,10.88226 5.563298,21.49135 14.004281,28.36052 7.07695,5.85281 16.30795,9.00401 25.48648,8.72965 4.88312,-0.0315 9.77219,0.0922 14.65127,-0.0867 1.74166,-0.14768 3.31844,0.12252 5.07881,0.0893 16.52494,-0.0125 33.05075,0.035 49.57512,-0.0342 10.90031,-0.3559 21.49326,-5.69674 28.323,-14.19001 5.77591,-7.08183 8.85182,-16.27437 8.56824,-25.40426 0.008,-25.2074 -0.0258,-50.41543 0.0256,-75.62243 0.28221,-8.00398 5.02859,-15.65444 12.05013,-19.49904 3.96856,-2.21846 8.56877,-3.16747 13.09468,-2.961 18.23519,0.0124 36.47131,-0.0348 54.70591,0.0342 7.97645,0.33997 15.57743,5.10801 19.37681,12.12706 2.20959,3.97591 3.12368,8.58379 2.91686,13.10868 0.006,25.14737 -0.02,50.29547 0.0269,75.44236 0.334,10.9558 5.6909,21.61956 14.24458,28.46591 7.04651,5.7327 16.17902,8.7979 25.25585,8.53283 16.75306,-0.0134 33.50702,0.0368 50.25949,-0.0363 3.17363,0.023 6.34744,0.0572 9.52176,0.032 4.00173,-0.0337 8.01614,0.14085 12.00782,-0.2009 10.33972,-1.04212 20.12343,-6.52949 26.43074,-14.78463 5.39642,-6.97117 8.23201,-15.84155 7.9646,-24.64779 0.0357,-4.37379 -0.0822,-8.75373 0.0715,-13.12346 0.62545,-5.98394 0.23855,-12.0085 0.30672,-18.01128 -0.17844,-40.78946 -0.35687,-81.57892 -0.5353,-122.36838 8.43247,-0.0178 16.86697,0.0552 25.29812,-0.054 10.89938,-0.57351 21.15705,-7.33397 26.17218,-16.99848 2.42006,-4.55787 3.60301,-9.71974 3.63865,-14.8676 0.59879,-6.40955 -1.67891,-12.87102 -5.6369,-17.87826 -3.32265,-4.28329 -7.71148,-7.53924 -11.68924,-11.16935 C 451.20251,163.63387 379.99481,101.02684 308.76564,38.445378 302.75481,33.549432 294.82738,31.486559 287.16992,31.671875 Z"
     transform="matrix(0.87212188,0,0,0.87212188,2.703335,31.575246)" />
</svg>
