<?xml version="1.0" encoding="UTF-8" standalone="no"?>
<!-- Created with Inkscape (http://www.inkscape.org/) -->

<svg
   width="512"
   height="512"
   viewBox="0 0 135.46666 135.46667"
   version="1.1"
   id="svg5"
   inkscape:version="1.2.2 (732a01da63, 2022-12-09)"
   sodipodi:docname="microplus-logo.svg"
   xml:space="preserve"
   xmlns:inkscape="http://www.inkscape.org/namespaces/inkscape"
   xmlns:sodipodi="http://sodipodi.sourceforge.net/DTD/sodipodi-0.dtd"
   xmlns="http://www.w3.org/2000/svg"
   xmlns:svg="http://www.w3.org/2000/svg"><sodipodi:namedview
     id="namedview7"
     pagecolor="#56cdc8"
     bordercolor="#37c7ba"
     borderopacity="0.24705882"
     inkscape:showpageshadow="2"
     inkscape:pageopacity="0"
     inkscape:pagecheckerboard="0"
     inkscape:deskcolor="#d1d1d1"
     inkscape:document-units="px"
     showgrid="false"
     inkscape:zoom="1.4324916"
     inkscape:cx="287.61077"
     inkscape:cy="259.33835"
     inkscape:window-width="1920"
     inkscape:window-height="991"
     inkscape:window-x="-9"
     inkscape:window-y="-9"
     inkscape:window-maximized="1"
     inkscape:current-layer="layer1" /><defs
     id="defs2" /><g
     inkscape:label="Microplus"
     inkscape:groupmode="layer"
     id="layer1"
     transform="matrix(0.49381629,0,0,0.49381629,-100.18669,25.679798)"><circle
       style="display:inline;fill:#ffffff;fill-opacity:1;stroke:none;stroke-width:5.05677;stroke-linecap:round;stroke-linejoin:round;stroke-miterlimit:7;stroke-dasharray:none;stroke-opacity:1;paint-order:stroke fill markers"
       id="circle3644-2"
       cx="339.97925"
       cy="85.160278"
       r="131.34966"
       inkscape:label="bgcolor" /><path
       style="fill:#335c7b;stroke:none;stroke-width:0.264583"
       d="m 234.55945,105.68081 v 4.7625 h 156.89792 v -4.7625 z"
       id="path1370" /><path
       style="fill:#39b54a;fill-opacity:1;stroke:none;stroke-width:0.187088"
       d="m 313.00841,105.68081 v 4.7625 h 78.44896 v -4.7625 z"
       id="path1370-3" /><path
       style="fill:#39b54a;fill-opacity:1;stroke:none;stroke-width:0.264583"
       d="m 428.49904,105.41622 v 1.85209 c -1.2499,0.041 -1.75128,0.29369 -1.85209,1.5875 h 1.85209 v 1.85208 h 1.5875 v -1.85208 h 1.85208 v -1.5875 h -1.85208 v -1.85209 h -1.5875"
       id="path1368" /><path
       style="fill:#39b54a;fill-opacity:1;stroke:none;stroke-width:0.264583"
       d="m 414.7407,105.41622 v 1.85209 h -1.85208 v 1.5875 h 1.85208 v 1.85208 h 1.5875 v -1.85208 h 1.85209 c -0.10081,-1.29381 -0.6022,-1.54649 -1.85209,-1.5875 v -1.85209 h -1.5875"
       id="path1366" /><path
       style="fill:#39b54a;fill-opacity:1;stroke:none;stroke-width:0.264583"
       d="m 400.71779,105.41622 v 1.85209 h -1.85209 v 1.5875 h 1.85209 v 1.85208 h 1.32291 v -1.85208 h 2.11667 c -0.11166,-1.43166 -0.78925,-1.57189 -2.11667,-1.5875 v -1.85209 h -1.32291"
       id="path1364" /><path
       style="fill:#2d318d;fill-opacity:1;stroke:none;stroke-width:0.264583"
       d="m 290.12195,68.109975 v 19.314583 c 0,3.293798 -0.48022,7.059348 1.1983,10.054167 2.4384,4.351335 7.32287,4.673865 11.76628,4.040455 1.06177,-0.15134 3.24194,-0.13335 3.96134,-1.05807 1.01018,-1.297783 0.27199,-5.333208 0.27199,-6.951135 -2.04787,0.161925 -4.07617,1.013618 -5.79199,-0.588698 -1.83568,-1.713706 -1.35176,-4.817004 -1.35176,-7.084219 V 68.109975 h -10.05416"
       id="path1362" /><path
       style="fill:#2d318d;fill-opacity:1;stroke:none;stroke-width:0.264583"
       d="m 353.09278,55.145391 v 45.772919 h 10.58333 V 83.455808 c 1.29011,0 2.75167,-0.183885 3.96875,0.324908 6.32116,2.643717 7.04189,12.524582 11.84963,16.713464 0.84006,0.73184 2.46381,0.42413 3.49621,0.42413 h 8.46667 c -0.64056,-2.010042 -2.11878,-3.774548 -3.2258,-5.556252 -2.85724,-4.598988 -6.55664,-13.167783 -12.12004,-14.816667 2.75802,-1.470289 5.5417,-2.446866 7.53296,-5.027083 4.53681,-5.878777 3.18585,-15.517812 -3.82879,-18.702867 -7.68826,-3.490648 -18.47056,-1.67005 -26.72292,-1.67005 m 10.58333,20.372917 v -12.7 c 3.05515,0 6.84028,-0.497946 9.51442,1.314715 3.59278,2.435489 2.28547,8.366654 -1.05172,10.338858 -2.5011,1.477962 -5.68404,1.046427 -8.4627,1.046427"
       id="path1360" /><path
       style="fill:#2d318d;fill-opacity:1;stroke:none;stroke-width:0.264583"
       d="m 234.29486,55.145391 v 45.772919 h 9.525 l -0.26458,-36.247919 h 0.26458 c 0.48684,5.960269 4.46141,11.699346 7.0784,16.933334 0.67707,1.353873 1.73964,5.011473 3.29671,5.472112 1.31445,0.388938 5.78432,0.604309 6.91885,-0.187854 1.37981,-0.963348 2.11032,-3.835665 2.92656,-5.284258 2.85459,-5.064125 7.04506,-11.285009 7.56073,-17.197917 h 0.26459 l -0.26459,36.512502 h 9.525 V 55.145391 h -8.99583 c -1.15067,0 -2.83924,-0.307181 -3.91239,0.159544 -1.46262,0.636323 -2.36617,3.796506 -3.11918,5.132123 -2.84374,5.045075 -6.77439,11.036829 -7.25593,16.933333 l -7.60756,-16.404166 -3.34354,-5.66129 -3.86557,-0.159544 h -8.73125 m 9.17231,8.907727 -0.0884,0.176213 0.0884,-0.176213"
       id="path1358" /><path
       style="fill:#2d318d;fill-opacity:1;stroke:none;stroke-width:0.264583"
       d="m 411.83029,54.464089 c -6.27777,0.854604 -11.78666,3.821113 -15.41304,9.147969 -8.60478,12.63994 -4.01955,33.21685 11.70887,37.376362 2.92179,0.77285 6.25581,1.00754 9.26042,0.64797 7.20645,-0.86175 13.41225,-4.579411 16.96905,-11.036832 C 441.2464,78.089 436.46061,58.805373 421.61987,55.007279 418.54144,54.219614 414.982,54.0352 411.83029,54.464089 m 1.05833,8.962761 c 16.45126,-2.371725 18.55973,27.243087 3.43958,29.21291 -15.89855,2.071158 -18.03347,-27.108944 -3.43958,-29.21291"
       id="path1356" /><path
       style="fill:#2d318d;fill-opacity:1;stroke:none;stroke-width:0.264583"
       d="m 345.15528,89.805808 c -3.89334,1.620837 -7.32446,3.012281 -11.64167,2.906448 -13.24742,-0.324644 -17.43022,-18.448073 -7.9375,-26.36811 5.84227,-4.874419 13.30749,-2.962011 19.57917,-0.350838 v -7.14375 c 0,-0.78396 0.23019,-2.055283 -0.27199,-2.724679 -0.9824,-1.309688 -4.32673,-1.3716 -5.81343,-1.549665 -6.28411,-0.752475 -12.98019,-0.233362 -18.52083,3.071284 -7.91448,4.720431 -11.12652,13.282612 -11.1125,22.105143 0.0222,13.812838 10.41215,21.960419 23.54792,21.960419 2.98952,0 6.1251,-0.25427 8.99583,-1.15015 0.88371,-0.27569 2.35532,-0.51779 2.90301,-1.341962 1.25624,-1.890713 0.27199,-7.154334 0.27199,-9.41414"
       id="path1354" /><path
       style="fill:#2d318d;fill-opacity:1;stroke:none;stroke-width:0.264583"
       d="m 294.35528,52.616239 c -7.73721,1.208352 -5.275,11.478684 2.11667,10.387013 7.47289,-1.103842 5.03528,-11.504084 -2.11667,-10.387013"
       id="path1352" /><path
       style="fill:#39b54a;fill-opacity:1;stroke:none;stroke-width:0.264583"
       d="m 439.61154,42.974558 v 3.704167 h -3.96875 v 4.7625 h 3.96875 v 3.704166 h 4.7625 v -3.704166 h 3.70416 v -4.7625 h -3.70416 v -3.704167 h -4.7625"
       id="path1350" /><circle
       style="display:inline;fill:none;fill-opacity:1;stroke:#39b54a;stroke-width:4.82214;stroke-linecap:round;stroke-linejoin:round;stroke-miterlimit:7;stroke-dasharray:none;stroke-opacity:1;paint-order:stroke fill markers"
       id="path3435"
       cx="339.97925"
       cy="85.160278"
       r="125.25508"
       sodipodi:insensitive="true"
       inkscape:label="circle1" /><circle
       style="display:inline;fill:none;fill-opacity:1;stroke:#335c7b;stroke-width:5.05677;stroke-linecap:round;stroke-linejoin:round;stroke-miterlimit:7;stroke-dasharray:none;stroke-opacity:1;paint-order:stroke fill markers"
       id="circle3644"
       cx="339.97925"
       cy="85.160278"
       r="131.34966"
       sodipodi:insensitive="true"
       inkscape:label="circle2" /></g></svg>
