<?xml version="1.0" encoding="UTF-8" standalone="no"?>
<!-- Created with Inkscape (http://www.inkscape.org/) -->

<svg
   width="512"
   height="512"
   viewBox="0 0 135.46666 135.46667"
   version="1.1"
   id="svg5"
   inkscape:version="1.2.2 (732a01da63, 2022-12-09)"
   sodipodi:docname="motorcycle.svg"
   xml:space="preserve"
   xmlns:inkscape="http://www.inkscape.org/namespaces/inkscape"
   xmlns:sodipodi="http://sodipodi.sourceforge.net/DTD/sodipodi-0.dtd"
   xmlns="http://www.w3.org/2000/svg"
   xmlns:svg="http://www.w3.org/2000/svg"><sodipodi:namedview
     id="namedview7"
     pagecolor="#3fc481"
     bordercolor="#000000"
     borderopacity="0.25"
     inkscape:showpageshadow="2"
     inkscape:pageopacity="0"
     inkscape:pagecheckerboard="0"
     inkscape:deskcolor="#d1d1d1"
     inkscape:document-units="mm"
     showgrid="false"
     inkscape:zoom="1.4324916"
     inkscape:cx="241.18815"
     inkscape:cy="260.03643"
     inkscape:window-width="2400"
     inkscape:window-height="1261"
     inkscape:window-x="2391"
     inkscape:window-y="-9"
     inkscape:window-maximized="1"
     inkscape:current-layer="svg5" /><defs
     id="defs2" /><g
     id="g7705"
     inkscape:label="motorcycle"
     transform="matrix(1.1333274,0,0,1.1333274,-8.2021119,-26.821627)"><circle
       style="display:inline;fill:#afbdc3;fill-opacity:1;stroke:#546e7a;stroke-width:7.57241;stroke-linecap:round;stroke-linejoin:round;stroke-miterlimit:7;stroke-dasharray:none;stroke-opacity:1;paint-order:markers fill stroke"
       id="path375"
       cx="28.994015"
       cy="99.389397"
       r="13.560852"
       inkscape:label="wheel_back" /><g
       id="g2764"
       inkscape:label="wheel_front"
       style="display:inline"
       transform="matrix(0.95694379,0,0,0.95694379,3.3004352,4.0762036)"><circle
         style="fill:#afbdc3;fill-opacity:1;stroke:#546e7a;stroke-width:7;stroke-linecap:round;stroke-linejoin:round;stroke-miterlimit:7;stroke-dasharray:none;stroke-opacity:1;paint-order:markers fill stroke"
         id="path375-6"
         cx="106.31139"
         cy="99.911812"
         r="13.867146" /><circle
         style="fill:#ca3046;fill-opacity:1;stroke:none;stroke-width:3.84172;stroke-linecap:round;stroke-linejoin:round;stroke-miterlimit:7;stroke-dasharray:none;stroke-opacity:1;paint-order:markers fill stroke"
         id="path375-6-2"
         cx="106.24609"
         cy="99.592056"
         r="6.879849" /></g><rect
       style="opacity:1;fill:#fd9e27;fill-opacity:1;stroke:none;stroke-width:11.4256;stroke-linecap:round;stroke-linejoin:round;stroke-miterlimit:7;stroke-dasharray:none;stroke-opacity:1;paint-order:markers fill stroke"
       id="rect1968"
       width="6.248703"
       height="32.757645"
       x="60.588333"
       y="99.865242"
       ry="3.1243529"
       transform="rotate(-20.427287)" /><path
       id="path4228"
       style="opacity:1;fill:#ebedef;fill-opacity:1;stroke:none;stroke-width:1;stroke-linecap:round;stroke-linejoin:round;stroke-miterlimit:7;stroke-dasharray:none;stroke-opacity:1;paint-order:markers fill stroke"
       d="m 113.08199,71.329496 c 0.0316,0.06519 0.063,0.130797 0.094,0.196371 l -10.47016,-0.01757 -0.0119,3.526916 3.60185,3.416846 h 5.07927 l -0.0543,0.109037 0.18139,-0.0052 1.71979,-3.301608 0.0346,-3.924825 z"
       inkscape:label="light" /><path
       style="opacity:1;fill:#e43c53;fill-opacity:1;stroke:#546e7a;stroke-width:1;stroke-linecap:round;stroke-linejoin:round;stroke-miterlimit:7;stroke-dasharray:none;stroke-opacity:1;paint-order:markers fill stroke"
       d="m 53.244688,82.005141 21.051486,11.222936 3.278452,10.527983 7.498576,-0.50377 c 0,0 0.501268,-1.50053 3.72204,-11.201684 1.654098,-4.982242 6.464552,-8.334654 9.743004,-9.489039 3.278454,-1.154385 11.009044,-0.454195 11.128264,-0.692632 l 1.70849,-3.416977 h -5.07929 l -3.60168,-3.416978 0.0116,-3.526645 10.47027,0.01731 C 108.85011,62.40165 99.860956,56.978139 88.630517,53.881296 l 0.02089,3.531496 5.869634,6.447747 -1.464327,4.522624 -3.938192,-3.829996 -15.791976,-1.662313 c 0,0 -2.271473,0.07275 -4.38666,0.923507 -1.379555,0.554874 -3.60168,2.631998 -3.60168,2.631998 z"
       id="path3601"
       sodipodi:nodetypes="ccccssscccccccccccscc"
       inkscape:label="body" /><path
       style="display:inline;opacity:1;fill:#546e7a;fill-opacity:1;stroke:#c7e2e7;stroke-width:1;stroke-linecap:round;stroke-linejoin:round;stroke-miterlimit:7;stroke-dasharray:none;stroke-opacity:1;paint-order:markers fill stroke"
       d="m 40.824873,82.172573 c 0,0 -2.470418,-2.0148 -6.772176,-3.022381 -12.230978,-5.475758 -16.736931,-8.501871 -16.736931,-8.501871 0,0 -2.375308,-2.037954 -2.273317,-6.269608 0.08411,-3.489924 2.550369,-3.33487 2.550369,-3.33487 l 20.963618,-0.04618 c 0,0 1.154385,0.415578 1.569963,0.969682 3.00703,4.743424 4.797531,8.215231 8.173043,9.327425 2.124067,-0.09235 13.252331,0.09235 13.252331,0.09235 l -7.942165,10.57416 z"
       id="path2917"
       sodipodi:nodetypes="cccsccccccc" /><path
       style="display:inline;fill:#c7e2e7;fill-opacity:1;stroke:#546e7a;stroke-width:1;stroke-linecap:round;stroke-linejoin:round;stroke-miterlimit:7;stroke-dasharray:none;stroke-opacity:1;paint-order:markers fill stroke"
       d="M 77.666591,109.89772 H 52.362487 c 0,0 -3.384714,0.0925 -3.416977,-3.27845 -0.03049,-3.18579 2.625035,-4.82624 0.495367,-12.919257 -2.6891,-6.267579 -3.960233,-7.75554 -8.470347,-11.55076 l 12.638693,-0.187636 21.05597,10.620338 3.416977,10.574145 h 6.648292 c -1.14281,3.80133 -3.524237,6.4991 -7.063871,6.74162 z"
       id="path2917-7"
       sodipodi:nodetypes="ccsccccccc" /><path
       style="display:inline;opacity:1;fill:#fd9e27;fill-opacity:1;stroke:none;stroke-width:7;stroke-linecap:round;stroke-linejoin:round;stroke-miterlimit:7;stroke-dasharray:none;stroke-opacity:1;paint-order:markers fill stroke"
       d="m 25.765858,95.305971 c 0,0 22.76904,-11.499402 23.780316,-11.497669 1.092867,0.0019 16.946363,7.526586 16.946363,7.526586 0,0 2.703788,1.629461 2.860185,4.528359 0.186485,3.45658 -2.952535,4.799063 -2.952535,4.799063 l -37.586755,4.15579 c 0,0 -3.891164,-0.0993 -4.731334,-3.82252 -0.854267,-3.785696 1.68376,-5.689609 1.68376,-5.689609 z"
       id="path2842"
       sodipodi:nodetypes="cscsccsc" /><path
       id="path3756"
       style="opacity:1;fill:#445a64;fill-opacity:1;stroke:none;stroke-width:7;stroke-linecap:round;stroke-linejoin:round;stroke-miterlimit:7;stroke-dasharray:none;stroke-opacity:1;paint-order:markers fill stroke"
       d="m 89.856014,58.735433 c -2.382297,0.454489 -5.712314,1.084688 -5.955192,1.084688 -0.346316,0 -1.039213,0.692933 -1.039213,1.616439 0,0.923506 0.692946,1.154086 0.831474,1.246436 0.138525,0.09235 5.333007,1.66243 5.333007,1.66243 0,0 0.0045,0.173125 0.0052,0.197921 l 0.08733,0.0093 3.938261,3.830257 1.46451,-4.522721 z" /><path
       id="path4476"
       style="opacity:1;fill:#ca3046;fill-opacity:1;stroke:none;stroke-width:7;stroke-linecap:round;stroke-linejoin:round;stroke-miterlimit:7;stroke-dasharray:none;stroke-opacity:1;paint-order:markers fill stroke"
       d="m 73.32679,62.890735 c 0,0 -2.271627,0.0727 -4.386812,0.923458 -1.379554,0.554873 -3.601847,2.632397 -3.601847,2.632397 l -12.093319,15.55874 3.692281,1.968356 c 2.393309,-1.183684 17.24942,-8.526913 17.590141,-8.569503 0.369403,-0.04617 17.86971,-3.878316 17.86971,-3.878316 l 0.65009,-3.152779 -3.928443,-3.819922 z" /></g></svg>
