<?xml version="1.0" encoding="UTF-8" standalone="no"?>
<svg
   viewBox="0 0 512 512"
   version="1.1"
   id="svg4"
   sodipodi:docname="phone.svg"
   width="512"
   height="512"
   inkscape:version="1.2.2 (732a01da63, 2022-12-09)"
   xmlns:inkscape="http://www.inkscape.org/namespaces/inkscape"
   xmlns:sodipodi="http://sodipodi.sourceforge.net/DTD/sodipodi-0.dtd"
   xmlns="http://www.w3.org/2000/svg"
   xmlns:svg="http://www.w3.org/2000/svg">
  <defs
     id="defs8">
    <filter
       style="color-interpolation-filters:sRGB;"
       inkscape:label="Drop Shadow"
       id="filter1693"
       x="-0.1347357"
       y="-0.1347357"
       width="1.3015513"
       height="1.3015513">
      <feFlood
         flood-opacity="0.498039"
         flood-color="rgb(0,0,0)"
         result="flood"
         id="feFlood1683" />
      <feComposite
         in="flood"
         in2="SourceGraphic"
         operator="in"
         result="composite1"
         id="feComposite1685" />
      <feGaussianBlur
         in="composite1"
         stdDeviation="5"
         result="blur"
         id="feGaussianBlur1687" />
      <feOffset
         dx="10"
         dy="10"
         result="offset"
         id="feOffset1689" />
      <feComposite
         in="SourceGraphic"
         in2="offset"
         operator="over"
         result="composite2"
         id="feComposite1691" />
    </filter>
  </defs>
  <sodipodi:namedview
     id="namedview6"
     pagecolor="#ff2323"
     bordercolor="#000000"
     borderopacity="0.25"
     inkscape:showpageshadow="2"
     inkscape:pageopacity="0"
     inkscape:pagecheckerboard="0"
     inkscape:deskcolor="#d1d1d1"
     showgrid="false"
     inkscape:zoom="1.5703125"
     inkscape:cx="421.57214"
     inkscape:cy="263.9602"
     inkscape:window-width="2400"
     inkscape:window-height="1261"
     inkscape:window-x="2391"
     inkscape:window-y="-9"
     inkscape:window-maximized="1"
     inkscape:current-layer="svg4" />
  <path
     d="m 142.67093,100.1393 c -24.56197,0 -44.531627,19.96966 -44.531627,44.53163 v 222.65814 c 0,24.56197 19.969657,44.53163 44.531627,44.53163 h 222.65814 c 24.56197,0 44.53163,-19.96966 44.53163,-44.53163 V 144.67093 c 0,-24.56197 -19.96966,-44.53163 -44.53163,-44.53163 z m 63.10967,67.28451 c 6.74932,-1.8091 13.84655,1.60035 16.49062,8.07136 l 13.91613,33.39872 c 2.36574,5.70561 0.69581,12.2462 -4.03568,16.14271 l -17.11684,14.0553 c 11.55039,24.49239 31.38088,44.32288 55.87327,55.87327 l 14.0553,-17.18642 c 3.89651,-4.73149 10.4371,-6.40142 16.14271,-4.03568 l 33.39872,13.91613 c 6.47101,2.71365 9.88046,9.7413 8.07136,16.49062 l -8.34968,30.6155 c -1.66994,6.1231 -7.16681,10.29794 -13.42907,10.29794 -86.07129,0 -155.8607,-69.78941 -155.8607,-155.8607 0,-6.26226 4.17484,-11.75913 10.22836,-13.42907 z"
     id="path1575"
     style="stroke-width:60;fill:#668000;stroke-dasharray:none;stroke:#fcfcfd;stroke-opacity:1;fill-opacity:1;filter:url(#filter1693)"
     inkscape:label="bg" />
  <!--! Font Awesome Pro 6.3.0 by @fontawesome - https://fontawesome.com License - https://fontawesome.com/license (Commercial License) Copyright 2023 Fonticons, Inc. -->
  <path
     d="m 142.67093,100.1393 c -24.56197,0 -44.531627,19.96966 -44.531627,44.53163 v 222.65814 c 0,24.56197 19.969657,44.53163 44.531627,44.53163 h 222.65814 c 24.56197,0 44.53163,-19.96966 44.53163,-44.53163 V 144.67093 c 0,-24.56197 -19.96966,-44.53163 -44.53163,-44.53163 z m 63.10967,67.28451 c 6.74932,-1.8091 13.84655,1.60035 16.49062,8.07136 l 13.91613,33.39872 c 2.36574,5.70561 0.69581,12.2462 -4.03568,16.14271 l -17.11684,14.0553 c 11.55039,24.49239 31.38088,44.32288 55.87327,55.87327 l 14.0553,-17.18642 c 3.89651,-4.73149 10.4371,-6.40142 16.14271,-4.03568 l 33.39872,13.91613 c 6.47101,2.71365 9.88046,9.7413 8.07136,16.49062 l -8.34968,30.6155 c -1.66994,6.1231 -7.16681,10.29794 -13.42907,10.29794 -86.07129,0 -155.8607,-69.78941 -155.8607,-155.8607 0,-6.26226 4.17484,-11.75913 10.22836,-13.42907 z"
     id="path2"
     style="stroke-width:15;fill:#668000;stroke-dasharray:none;stroke:#40396e;stroke-opacity:1"
     inkscape:label="obj" />
</svg>
