<?xml version="1.0" encoding="UTF-8" standalone="no"?>
<svg
   viewBox="0 0 512 512"
   version="1.1"
   id="svg4"
   sodipodi:docname="bars-solid.svg"
   width="512"
   height="512"
   inkscape:version="1.2.2 (732a01da63, 2022-12-09)"
   xmlns:inkscape="http://www.inkscape.org/namespaces/inkscape"
   xmlns:sodipodi="http://sodipodi.sourceforge.net/DTD/sodipodi-0.dtd"
   xmlns="http://www.w3.org/2000/svg"
   xmlns:svg="http://www.w3.org/2000/svg">
  <defs
     id="defs8">
    <filter
       style="color-interpolation-filters:sRGB;"
       inkscape:label="Drop Shadow"
       id="filter3798"
       x="-0.10425878"
       y="-0.1192948"
       width="1.2332752"
       height="1.2669939">
      <feFlood
         flood-opacity="0.498039"
         flood-color="rgb(0,0,0)"
         result="flood"
         id="feFlood3788" />
      <feComposite
         in="flood"
         in2="SourceGraphic"
         operator="in"
         result="composite1"
         id="feComposite3790" />
      <feGaussianBlur
         in="composite1"
         stdDeviation="5"
         result="blur"
         id="feGaussianBlur3792" />
      <feOffset
         dx="10"
         dy="10"
         result="offset"
         id="feOffset3794" />
      <feComposite
         in="SourceGraphic"
         in2="offset"
         operator="over"
         result="composite2"
         id="feComposite3796" />
    </filter>
  </defs>
  <sodipodi:namedview
     id="namedview6"
     pagecolor="#329165"
     bordercolor="#000000"
     borderopacity="0.25"
     inkscape:showpageshadow="2"
     inkscape:pageopacity="0"
     inkscape:pagecheckerboard="0"
     inkscape:deskcolor="#d1d1d1"
     showgrid="false"
     inkscape:zoom="1.1103786"
     inkscape:cx="490.82357"
     inkscape:cy="311.15513"
     inkscape:window-width="2400"
     inkscape:window-height="1261"
     inkscape:window-x="2391"
     inkscape:window-y="-9"
     inkscape:window-maximized="1"
     inkscape:current-layer="svg4" />
  <path
     id="path2324"
     style="fill:none;fill-opacity:1;stroke-width:60;stroke:#ffffff;stroke-opacity:1;stroke-dasharray:none;filter:url(#filter3798)"
     d="m 391.80859,79.970703 c -99.44596,0.01141 -198.89246,0.0221 -298.338072,0.07672 -16.201814,0.784257 -31.517597,11.309103 -38.008358,26.183272 -3.995649,8.97623 -4.843539,19.28396 -2.501222,28.81618 0.219397,0.89823 0.544155,2.05747 0.863135,3.04055 0.325677,1.00156 0.790658,2.28899 1.247454,3.37629 4.430361,10.77955 13.40447,19.51092 24.180545,23.88638 5.605514,2.31946 11.693232,3.43126 17.756504,3.27006 10.564344,0.0546 21.128924,-0.0104 31.693374,0.0215 95.27644,-0.0137 190.55339,-0.0276 285.8295,-0.0815 16.31955,-0.79216 31.76529,-11.46529 38.14059,-26.5318 6.26148,-14.18435 4.38473,-31.67967 -4.97692,-44.081333 -8.2302,-11.16222 -21.92777,-18.185394 -35.83847,-17.952449 -6.68261,-0.04282 -13.36536,-0.02588 -20.04806,-0.0239 z m -8.03515,131.693357 c -96.58659,0.007 -193.17321,-0.009 -289.759768,0.0859 -16.416686,0.49214 -31.98583,11.15742 -38.552141,26.18277 -2.8586,6.45446 -4.136947,13.59771 -3.71739,20.6434 0.04224,0.64105 0.112414,1.58672 0.20067,2.34862 0.807307,7.54349 3.575617,14.88292 8.04347,21.02248 0.331089,0.44309 0.857498,1.15474 1.290334,1.68439 7.861126,9.851 20.044304,16.17535 32.666246,16.64934 6.060189,0.0856 12.123419,0.0477 18.184829,0.0561 100.766,-0.002 201.53204,-0.0353 302.29804,-0.0735 16.39747,-0.75793 31.93092,-11.49419 38.29268,-26.6498 6.18487,-14.13324 4.32481,-31.52818 -4.97147,-43.88638 -8.28294,-11.34232 -22.22508,-18.37626 -36.29542,-18.03929 -9.22667,-0.0402 -18.45336,-0.0305 -27.68008,-0.0241 z m 12.97461,131.69922 c -101.15558,0.0147 -202.31179,-0.0101 -303.46696,0.0849 -16.374737,0.86461 -31.819574,11.68051 -38.098288,26.84969 -6.086857,14.13712 -4.170486,31.47576 5.148923,43.77747 8.272854,11.25771 22.134206,18.23931 36.130763,17.92576 11.337582,0.0746 22.675542,1.6e-4 34.013292,0.0331 94.68385,-0.0138 189.36825,-0.0274 284.05175,-0.0816 16.22674,-0.791 31.59038,-11.33951 38.03442,-26.2729 6.31928,-14.10329 4.6052,-31.55548 -4.63001,-43.99857 -8.29266,-11.55023 -22.43656,-18.69607 -36.6753,-18.30186 -4.83613,-0.034 -9.67239,-0.0176 -14.50859,-0.016 z"
     inkscape:label="bg" />
  <!--! Font Awesome Pro 6.3.0 by @fontawesome - https://fontawesome.com License - https://fontawesome.com/license (Commercial License) Copyright 2023 Fonticons, Inc. -->
  <path
     id="path2"
     style="display:inline;fill:#70bfff;fill-opacity:1;stroke:#40396e;stroke-width:15;stroke-dasharray:none;stroke-opacity:1"
     d="m 391.80859,79.970703 c -99.44596,0.01141 -198.89246,0.0221 -298.338072,0.07672 -16.201814,0.784257 -31.517597,11.309103 -38.008358,26.183267 -3.995649,8.97623 -4.843539,19.28397 -2.501222,28.81618 0.219397,0.89823 0.544155,2.05747 0.863135,3.04055 0.325677,1.00156 0.790658,2.28899 1.247454,3.37629 4.430361,10.77955 13.40447,19.51092 24.180545,23.88638 5.605514,2.31946 11.693232,3.43127 17.756504,3.27006 10.564344,0.0546 21.128924,-0.0104 31.693374,0.0215 95.27644,-0.0137 190.55339,-0.0276 285.8295,-0.0815 16.31955,-0.79215 31.76529,-11.46529 38.14059,-26.5318 6.26148,-14.18434 4.38473,-31.67966 -4.97692,-44.081328 -8.2302,-11.16222 -21.92777,-18.185394 -35.83847,-17.952449 -6.68261,-0.04282 -13.36536,-0.02588 -20.04806,-0.0239 z m -8.03515,131.693357 c -96.58659,0.007 -193.17321,-0.009 -289.759768,0.0859 -16.416686,0.49214 -31.98583,11.15742 -38.552141,26.18277 -2.8586,6.45446 -4.136947,13.59771 -3.71739,20.6434 0.04224,0.64105 0.112414,1.58672 0.20067,2.34862 0.807307,7.54349 3.575617,14.88292 8.04347,21.02248 0.331089,0.44309 0.857498,1.15474 1.290334,1.68439 7.861126,9.851 20.044304,16.17535 32.666246,16.64934 6.060189,0.0856 12.123419,0.0477 18.184829,0.0561 100.766,-0.002 201.53204,-0.0353 302.29804,-0.0735 16.39747,-0.75793 31.93092,-11.49419 38.29268,-26.6498 6.18487,-14.13324 4.32481,-31.52818 -4.97147,-43.88638 -8.28294,-11.34232 -22.22508,-18.37626 -36.29542,-18.03929 -9.22667,-0.0402 -18.45336,-0.0305 -27.68008,-0.0241 z m 12.97461,131.69922 c -101.15558,0.0147 -202.31179,-0.0101 -303.46696,0.0849 -16.374737,0.86461 -31.819574,11.68051 -38.098288,26.84969 -6.086857,14.13712 -4.170486,31.47576 5.148923,43.77747 8.272854,11.25771 22.134206,18.23931 36.130763,17.92576 11.337582,0.0746 22.675542,1.6e-4 34.013292,0.0331 94.68385,-0.0138 189.36825,-0.0274 284.05175,-0.0816 16.22674,-0.791 31.59038,-11.33951 38.03442,-26.2729 6.31928,-14.10329 4.6052,-31.55548 -4.63001,-43.99857 -8.29266,-11.55023 -22.43656,-18.69607 -36.6753,-18.30186 -4.83613,-0.034 -9.67239,-0.0176 -14.50859,-0.016 z"
     inkscape:label="obj" />
</svg>
