<?xml version="1.0" encoding="UTF-8" standalone="no"?>
<!-- Created with Inkscape (http://www.inkscape.org/) -->

<svg
   width="512"
   height="512"
   viewBox="0 0 135.46666 135.46667"
   version="1.1"
   id="svg5"
   inkscape:version="1.2.2 (732a01da63, 2022-12-09)"
   sodipodi:docname="user-female.svg"
   xml:space="preserve"
   xmlns:inkscape="http://www.inkscape.org/namespaces/inkscape"
   xmlns:sodipodi="http://sodipodi.sourceforge.net/DTD/sodipodi-0.dtd"
   xmlns="http://www.w3.org/2000/svg"
   xmlns:svg="http://www.w3.org/2000/svg"><sodipodi:namedview
     id="namedview7"
     pagecolor="#49c1b2"
     bordercolor="#000000"
     borderopacity="0.25"
     inkscape:showpageshadow="2"
     inkscape:pageopacity="0"
     inkscape:pagecheckerboard="0"
     inkscape:deskcolor="#d1d1d1"
     inkscape:document-units="px"
     showgrid="false"
     inkscape:zoom="0.71624578"
     inkscape:cx="11.867435"
     inkscape:cy="332.98625"
     inkscape:window-width="2400"
     inkscape:window-height="1261"
     inkscape:window-x="2391"
     inkscape:window-y="-9"
     inkscape:window-maximized="1"
     inkscape:current-layer="layer1" /><defs
     id="defs2"><inkscape:path-effect
       effect="fill_between_many"
       method="originald"
       linkedpaths="#path3149,0,1"
       id="path-effect3151"
       join="true"
       close="true"
       autoreverse="true" /></defs><g
     inkscape:label="female"
     inkscape:groupmode="layer"
     id="layer1"><g
       id="g2541"
       inkscape:label="leg"
       style="stroke:#000000;stroke-opacity:1"
       transform="matrix(1.7407296,0,0,1.7407296,2.8607558,-28.051053)"><rect
         style="fill:#ffffff;stroke:#000000;stroke-width:1.32292;stroke-linecap:round;stroke-linejoin:round;stroke-miterlimit:7;stroke-dasharray:none;stroke-opacity:1"
         id="rect2535"
         width="9.5523033"
         height="33.034519"
         x="26.6175"
         y="83.273315"
         ry="4.1557837"
         inkscape:label="left" /><rect
         style="fill:#ffffff;stroke:#000000;stroke-width:1.32292;stroke-linecap:round;stroke-linejoin:round;stroke-miterlimit:7;stroke-dasharray:none;stroke-opacity:1"
         id="rect2537"
         width="9.5523033"
         height="33.034519"
         x="36.347473"
         y="83.273315"
         ry="4.1557837"
         inkscape:label="right" /></g><circle
       style="fill:#ffffff;stroke:#000000;stroke-width:3.48145;stroke-dasharray:none;stroke-opacity:1;fill-opacity:1"
       id="path358"
       cx="69.226097"
       cy="22.560034"
       r="16.813227"
       inkscape:label="head" /><path
       style="display:inline;fill:#ffffff;fill-opacity:1;stroke:#000000;stroke-width:2.30284;stroke-linecap:round;stroke-linejoin:round;stroke-miterlimit:7;stroke-dasharray:none;stroke-opacity:1;paint-order:normal"
       d="M 20.444387,88.875539 34.810904,58.66182 c 0,0 4.215238,-13.02199 13.973679,-13.02199 h 37.340036 c 5.349436,0.830128 8.515662,2.312906 13.080553,13.164914 5.280898,12.554114 10.391558,18.952673 15.709438,29.754419 0,0 3.64596,4.708601 -2.14266,9.341648 -7.97788,6.385289 -12.29464,-4.861869 -12.29464,-4.861869 C 96.407657,83.957953 88.021367,66.081111 87.567088,66.46068 c -1.988999,0.05657 -3.804944,0.811823 -3.902134,2.87372 11.482946,17.449696 17.571076,38.47131 23.281936,57.76156 l -79.474123,0.2088 c 3.019709,-11.00936 11.56383,-40.012286 24.125591,-59.243606 -1.454616,-1.763245 -3.11111,-2.572163 -5.153819,-1.555336 -5.074704,10.212201 -8.17604,20.785889 -13.289684,31.603819 -1.444095,1.281719 -4.411057,4.574063 -10.363732,1.963353 -6.3229,-2.773076 -2.152092,-11.28396 -2.346736,-11.197451 z"
       id="path863"
       sodipodi:nodetypes="ccscscsccccccccsc"
       inkscape:label="body3" /><path
       style="display:inline;fill:#fd9999;fill-opacity:1;stroke:none;stroke-width:2.30283;stroke-linecap:round;stroke-linejoin:round;stroke-miterlimit:7;stroke-dasharray:none;stroke-opacity:1;paint-order:markers fill stroke"
       d="M 24.128933,88.875539 38.49545,58.66182 c 0,0 4.215237,-13.02199 13.973681,-13.02199 h 37.340034 c 5.349437,0.830128 8.515655,2.312906 13.080565,13.164914 5.2809,12.554114 10.39154,18.952673 15.70942,29.754419 0,0 3.64596,4.708601 -2.14264,9.341648 -7.9779,6.385289 -12.29465,-4.861869 -12.29465,-4.861869 C 100.09221,83.957953 91.705914,66.081111 91.251635,66.46068 89.262637,66.51725 87.44669,67.272503 87.3495,69.3344 c 11.482947,17.449696 17.57108,38.47131 23.28194,57.76156 l -79.474127,0.2088 c 3.01971,-11.00936 11.56383,-40.012286 24.125592,-59.243606 -1.454616,-1.763245 -3.11111,-2.572163 -5.15382,-1.555336 -5.074703,10.212201 -8.17604,20.785889 -13.289683,31.603819 -1.444096,1.281719 -4.411058,4.574063 -10.363733,1.963353 -6.322901,-2.773076 -2.152091,-11.28396 -2.346736,-11.197451 z"
       id="path2715"
       sodipodi:nodetypes="ccscscsccccccccsc"
       inkscape:label="body2" /><path
       id="use2680"
       style="fill:none;stroke:#ffffff;stroke-width:2.0481;stroke-linecap:round;stroke-linejoin:round;stroke-miterlimit:7;stroke-opacity:1"
       inkscape:label="b2"
       inkscape:transform-center-x="-1.8224576"
       inkscape:transform-center-y="1.3669485"
       d="m 61.56584,45.818875 7.612581,8.420578 8.939646,8.218881 3.486146,-10.802977 0.718842,-5.822989 c 0.176901,0.14288 -20.757215,-0.01357 -20.757215,-0.01357 z m 16.204604,-0.08039 -7.61258,8.420577 -8.939646,8.218882 -3.486147,-10.802977 -0.718841,-5.822986 c -0.176901,0.142879 20.757214,-0.01357 20.757214,-0.01357 z" /><path
       style="display:inline;fill:none;fill-opacity:1;stroke:#000000;stroke-width:2.30284;stroke-linecap:round;stroke-linejoin:round;stroke-miterlimit:7;stroke-dasharray:none;stroke-opacity:1;paint-order:normal"
       d="M 20.444387,88.875539 34.810904,58.66182 c 0,0 4.215238,-13.02199 13.973679,-13.02199 h 37.340036 c 5.349436,0.830128 8.515662,2.312906 13.080553,13.164914 5.280898,12.554114 10.391558,18.952673 15.709438,29.754419 0,0 3.64596,4.708601 -2.14266,9.341648 -7.97788,6.385289 -12.29464,-4.861869 -12.29464,-4.861869 C 96.407657,83.957953 88.021367,66.081111 87.567088,66.46068 c -1.988999,0.05657 -3.804944,0.811823 -3.902134,2.87372 11.482946,17.449696 17.571076,38.47131 23.281936,57.76156 l -79.474123,0.2088 c 3.019709,-11.00936 11.56383,-40.012286 24.125591,-59.243606 -1.454616,-1.763245 -3.11111,-2.572163 -5.153819,-1.555336 -5.074704,10.212201 -8.17604,20.785889 -13.289684,31.603819 -1.444095,1.281719 -4.411057,4.574063 -10.363732,1.963353 -6.3229,-2.773076 -2.152092,-11.28396 -2.346736,-11.197451 z"
       id="path4781"
       sodipodi:nodetypes="ccscscsccccccccsc"
       inkscape:label="body" /><path
       id="path3588"
       style="fill:none;stroke:#000000;stroke-width:2.0481;stroke-linecap:round;stroke-linejoin:round;stroke-miterlimit:7;stroke-opacity:1"
       inkscape:label="b"
       inkscape:transform-center-x="-1.8224577"
       inkscape:transform-center-y="1.3669509"
       d="m 60.644704,45.818875 7.612581,8.420578 8.939645,8.218881 3.486147,-10.802977 0.718842,-5.822989 c 0.1769,0.14288 -20.757215,-0.01357 -20.757215,-0.01357 z m 16.204604,-0.08039 -7.612581,8.420577 -8.939645,8.218882 -3.486147,-10.802977 -0.718842,-5.822986 c -0.1769,0.142879 20.757215,-0.01357 20.757215,-0.01357 z" /></g></svg>
