<?xml version="1.0" encoding="UTF-8" standalone="no"?>
<!-- Created with Inkscape (http://www.inkscape.org/) -->

<svg
   width="512"
   height="512"
   viewBox="0 0 135.46666 135.46667"
   version="1.1"
   id="svg5"
   inkscape:version="1.2.2 (732a01da63, 2022-12-09)"
   sodipodi:docname="user-male.svg"
   xml:space="preserve"
   xmlns:inkscape="http://www.inkscape.org/namespaces/inkscape"
   xmlns:sodipodi="http://sodipodi.sourceforge.net/DTD/sodipodi-0.dtd"
   xmlns="http://www.w3.org/2000/svg"
   xmlns:svg="http://www.w3.org/2000/svg"><sodipodi:namedview
     id="namedview7"
     pagecolor="#4fbb89"
     bordercolor="#000000"
     borderopacity="0.25"
     inkscape:showpageshadow="2"
     inkscape:pageopacity="0"
     inkscape:pagecheckerboard="0"
     inkscape:deskcolor="#d1d1d1"
     inkscape:document-units="px"
     showgrid="false"
     inkscape:zoom="1.0129245"
     inkscape:cx="251.25268"
     inkscape:cy="456.59869"
     inkscape:window-width="2400"
     inkscape:window-height="1261"
     inkscape:window-x="2391"
     inkscape:window-y="-9"
     inkscape:window-maximized="1"
     inkscape:current-layer="layer1" /><defs
     id="defs2"><inkscape:path-effect
       effect="fill_between_many"
       method="originald"
       linkedpaths="#path3149,0,1"
       id="path-effect3151"
       join="true"
       close="true"
       autoreverse="true" /></defs><g
     inkscape:label="male"
     inkscape:groupmode="layer"
     id="layer1"><circle
       style="fill:#ffffff;stroke:#000000;stroke-width:3.75752;stroke-dasharray:none;stroke-opacity:1;fill-opacity:1"
       id="path358"
       cx="66.812325"
       cy="24.335871"
       r="18.146393"
       inkscape:label="head" /><path
       style="display:inline;fill:#ffffff;fill-opacity:1;stroke:none;stroke-width:3.75752;stroke-linecap:butt;stroke-linejoin:miter;stroke-miterlimit:7;stroke-dasharray:none;stroke-opacity:0.995951;paint-order:normal"
       d="M 16.591644,100.24733 28.800736,62.953258 c 0,0 5.416999,-13.707532 15.949215,-13.707532 H 85.05078 c 0,0 12.905303,0.898115 17.85246,11.499175 L 116.6441,90.18961 c 0,0 5.67011,9.593086 -0.5775,14.59351 -8.61048,6.8916 -15.12634,-4.53323 -15.12634,-4.53323 0.0557,-0.14712 -11.777877,-18.893694 -11.777877,-18.893694 l 0.66425,89.637954 c 0,0 -2.743752,8.59526 -11.780439,9.11579 -8.328863,0.47973 -11.274056,-5.08278 -11.274056,-5.08278 l -0.429401,-70.36057 -0.981491,70.17656 c 0,0 -4.070547,5.87141 -10.945238,5.61635 -8.346386,-0.30966 -11.500187,-8.71944 -11.500187,-8.71944 l 0.349563,-87.134485 -9.311825,23.005495 c 0,0 -3.852886,7.11631 -11.706015,4.54811 -7.911227,-2.58721 -5.6559,-11.91185 -5.6559,-11.91185 z"
       id="path1846"
       sodipodi:nodetypes="ccscscscccscccscccsc"
       inkscape:label="body3" /><path
       style="display:inline;fill:#598cc7;fill-opacity:1;stroke:none;stroke-width:3.75752;stroke-linecap:butt;stroke-linejoin:miter;stroke-miterlimit:7;stroke-dasharray:none;stroke-opacity:0.995951;paint-order:normal"
       d="M 20.568348,102.76488 32.77744,65.47078 c 0,0 5.416999,-13.707532 15.949216,-13.707532 h 40.300829 c 0,0 12.905295,0.898115 17.852465,11.499175 l 13.74085,29.444712 c 0,0 5.67011,9.593105 -0.57749,14.593535 -8.61048,6.8916 -15.12635,-4.53322 -15.12635,-4.53322 0.0558,-0.14714 -11.777872,-18.893732 -11.777872,-18.893732 l 0.664249,89.637992 c 0,0 -2.743751,8.59526 -11.780438,9.11579 -8.328864,0.47974 -11.458087,-5.26679 -11.458087,-5.26679 -0.08785,-0.0686 -0.342422,-70.80518 -0.342422,-70.80518 l -2.664195,-0.0685 0.637091,71.85517 c 0,0 -2.927883,4.88992 -9.802573,4.63486 -8.346386,-0.30967 -11.500187,-8.71945 -11.500187,-8.71945 l 0.349562,-87.134537 -9.311825,23.005517 c 0,0 -3.852886,7.11633 -11.706015,4.54812 -7.911227,-2.58721 -5.6559,-11.91185 -5.6559,-11.91185 z"
       id="path2550"
       sodipodi:nodetypes="ccscscscccsccccscccsc"
       inkscape:label="body2" /><path
       style="display:inline;fill:none;fill-opacity:1;stroke:#000000;stroke-width:3.75752;stroke-linecap:butt;stroke-linejoin:miter;stroke-miterlimit:7;stroke-dasharray:none;stroke-opacity:0.995951;paint-order:normal"
       d="M 16.591644,100.24733 28.800736,62.953258 c 0,0 5.416999,-13.707532 15.949215,-13.707532 H 85.05078 c 0,0 12.905303,0.898115 17.85246,11.499175 L 116.6441,90.18961 c 0,0 5.67011,9.593086 -0.5775,14.59351 -8.61048,6.8916 -15.12634,-4.53323 -15.12634,-4.53323 0.0557,-0.14712 -11.777877,-18.893694 -11.777877,-18.893694 l 0.66425,89.637954 c 0,0 -2.743752,8.59526 -11.780439,9.11579 -8.328863,0.47973 -11.274056,-5.08278 -11.274056,-5.08278 l -0.429401,-70.36057 -0.981491,70.17656 c 0,0 -4.070547,5.87141 -10.945238,5.61635 -8.346386,-0.30966 -11.500187,-8.71944 -11.500187,-8.71944 l 0.349563,-87.134485 -9.311825,23.005495 c 0,0 -3.852886,7.11631 -11.706015,4.54811 -7.911227,-2.58721 -5.6559,-11.91185 -5.6559,-11.91185 z"
       id="path4781"
       sodipodi:nodetypes="ccscscscccscccscccsc"
       inkscape:label="body" /><path
       id="path5556"
       style="fill:#ffffff;fill-opacity:1;stroke:#000000;stroke-width:2.89892;stroke-linecap:round;stroke-linejoin:round;stroke-miterlimit:7;stroke-dasharray:none;stroke-opacity:0.996078;paint-order:normal"
       d="m 58.43085,84.097392 8.219974,9.078789 8.342676,-8.833416 -6.563718,-26.193518 -3.680598,-0.06134 c 0,0 -6.38426,26.198037 -6.318334,26.009489 z m 8.047204,-17.792329 -3.459205,-8.740936 -6.235274,-8.220424 9.768107,0.0425 9.768108,0.04252 -6.048657,7.744142 z"
       sodipodi:nodetypes="cccccscccccccc" /><path
       style="fill:#ffffff;fill-opacity:1;stroke:#000000;stroke-width:0.357741;stroke-linecap:butt;stroke-linejoin:miter;stroke-miterlimit:7;stroke-dasharray:none;stroke-opacity:0.996078;paint-order:normal"
       d="m 66.107236,61.338428 -0.379169,-0.974282 0.08204,-0.36171 0.08204,-0.361711 0.681939,-0.0173 0.681941,-0.0173 0.06442,0.23201 c 0.03544,0.127607 0.06459,0.275581 0.06477,0.328824 3.58e-4,0.102534 -0.779334,2.01658 -0.854628,2.097988 -0.0243,0.0263 -0.214826,-0.390641 -0.423364,-0.926496 z"
       id="path5787" /></g></svg>
